<svg xmlns="http://www.w3.org/2000/svg" viewBox="0 0 138.96 37.81"><defs><style>.cls-1{fill:#e8e8e8;}</style></defs><g id="Capa_2" data-name="Capa 2"><g id="Capa_1-2" data-name="Capa 1"><g id="_0MXlnz" data-name=" 0MXlnz"><g id="Grupo_9911" data-name="Grupo 9911"><path id="Trazado_7424" data-name="Trazado 7424" class="cls-1" d="M61,8h19.9v3H66.14a4.27,4.27,0,0,0,.2.42,19.74,19.74,0,0,1,1.74,4.65c.06.29.18.37.47.37,4,0,7.93,0,11.9,0h.43v3.25H68.61v1.39H80.88v3.28H80.5l-11.93,0c-.3,0-.4.08-.46.38a19,19,0,0,1-1.68,4.63c-.05.09-.09.19-.13.28s0,0,0,.1H80.87V33H60.72A19.8,19.8,0,0,0,61,8Z"/><path id="Trazado_7425" data-name="Trazado 7425" class="cls-1" d="M25.73,34.42v3.39H17.66A17.46,17.46,0,0,1,6.4,33.93a17,17,0,0,1-6-9.51A17,17,0,0,1,2.37,11.91,17.35,17.35,0,0,1,7.52,6.38a16.18,16.18,0,0,1,7-2.79,26.36,26.36,0,0,1,3.33-.24c2.45,0,4.9,0,7.35,0h.47V6.57h-.39c-2.61,0-5.22,0-7.83,0A13.63,13.63,0,0,0,5.63,13.24a13.33,13.33,0,0,0-2,8.38A14,14,0,0,0,13.7,33.89a13,13,0,0,0,3.6.52h8.43Z"/><path id="Trazado_7426" data-name="Trazado 7426" class="cls-1" d="M37.06,37.8H27.43c0-.14,0-.26,0-.38q0-9.89,0-19.76a.45.45,0,0,1,.27-.48q4.57-2.13,9.13-4.31l.26-.12Z"/><path id="Trazado_7427" data-name="Trazado 7427" class="cls-1" d="M121.94,37.8h-9.63c0-.13,0-.24,0-.35V17.66a.43.43,0,0,1,.28-.46q4.53-2.13,9.06-4.29l.3-.13Z"/><path id="Trazado_7428" data-name="Trazado 7428" class="cls-1" d="M38.53,33V8h6.76A14.42,14.42,0,0,1,51.6,9.17a12.2,12.2,0,0,1,7,8.89,11.91,11.91,0,0,1-3.32,11.07,12.26,12.26,0,0,1-7.37,3.68,18.42,18.42,0,0,1-2.35.15c-2.21,0-4.41,0-6.62,0Zm3.22-3.26.35,0c1.5,0,3,0,4.51,0a9.7,9.7,0,0,0,1.7-.17,9.25,9.25,0,0,0,7.47-8.86,9.07,9.07,0,0,0-3.69-7.77,8.31,8.31,0,0,0-4.94-1.83C45.39,11,43.62,11,41.85,11l-.1,0Z"/><path id="Trazado_7429" data-name="Trazado 7429" class="cls-1" d="M25.73,29.73V33l-.35,0h-7a13.41,13.41,0,0,1-7.73-2.2,12.14,12.14,0,0,1-5.45-8.39A12.4,12.4,0,0,1,14.29,8.53a12.76,12.76,0,0,1,3.13-.48C20.12,8,22.84,8,25.55,8l.18,0v3h-.42c-2.59,0-5.18,0-7.76,0a9.37,9.37,0,0,0-6,2.27,9,9,0,0,0-3,4.91,9,9,0,0,0,1.81,8,9.3,9.3,0,0,0,7.58,3.53h7.86Z"/><path id="Trazado_7430" data-name="Trazado 7430" class="cls-1" d="M110.42,8v3.14l-.46,0H93.52a2.81,2.81,0,0,0-2.33,1,2.58,2.58,0,0,0-.4,2.9,2.66,2.66,0,0,0,2.59,1.61c2.17,0,4.33,0,6.5,0a10.37,10.37,0,0,1,7.19,2.9l.12.12.06.1-.29,0c-4.59,0-9.19,0-13.78,0a5.91,5.91,0,0,1-5.93-5.91c0-.13,0-.26,0-.4A5.91,5.91,0,0,1,92.46,8a8.22,8.22,0,0,1,1-.06h17Z"/><path id="Trazado_7431" data-name="Trazado 7431" class="cls-1" d="M85.56,21.16H99.47a5.73,5.73,0,0,1,4.23,1.68,5.62,5.62,0,0,1,1.52,6,5.72,5.72,0,0,1-4.64,4.05,4.86,4.86,0,0,1-1,.08H82.36V29.81H99.3A2.83,2.83,0,0,0,102,28.09a2.78,2.78,0,0,0-1.55-3.6,2.68,2.68,0,0,0-1.15-.19c-2.1,0-4.2,0-6.29,0a10.45,10.45,0,0,1-6.85-2.47c-.24-.19-.45-.4-.68-.61Z"/><path id="Trazado_7432" data-name="Trazado 7432" class="cls-1" d="M53.05,8h5.22a.63.63,0,0,1,.36.21,17.28,17.28,0,0,1,4.48,8.22,18,18,0,0,1-.64,10.51,17,17,0,0,1-3.61,5.85.61.61,0,0,1-.4.21h-5.3a14,14,0,0,0,7.08-12.55A13.91,13.91,0,0,0,53.05,8Z"/><path id="Trazado_7433" data-name="Trazado 7433" class="cls-1" d="M80.87,34.44v3.33H55.74c.33-.24.65-.44.94-.69.94-.8,1.86-1.63,2.8-2.44a.82.82,0,0,1,.49-.22q10.29,0,20.57,0Z"/><path id="Trazado_7434" data-name="Trazado 7434" class="cls-1" d="M55.67,3.31h25.2V6.55h-.41L60,6.57a.61.61,0,0,1-.4-.12A22.58,22.58,0,0,0,55.67,3.31Z"/><path id="Trazado_7435" data-name="Trazado 7435" class="cls-1" d="M85.26,6.55c.49-.42.9-.82,1.35-1.15A10.43,10.43,0,0,1,93,3.29h17.45V6.54Z"/><path id="Trazado_7436" data-name="Trazado 7436" class="cls-1" d="M107.47,34.5a10.59,10.59,0,0,1-2.16,1.73,10.33,10.33,0,0,1-5.38,1.53H82.68l-.32,0V34.51Z"/><path id="Trazado_7437" data-name="Trazado 7437" class="cls-1" d="M38.55,37.8V34.44H57c-.55.36-1,.69-1.48,1a15.64,15.64,0,0,1-7.69,2.32c-2.88.1-5.78,0-8.67.06Z"/><path id="Trazado_7438" data-name="Trazado 7438" class="cls-1" d="M56.94,6.54H38.54V3.33a.83.83,0,0,1,.22,0c3,0,6-.1,9,0A16.15,16.15,0,0,1,56.94,6.54Z"/><path id="Trazado_7439" data-name="Trazado 7439" class="cls-1" d="M104.42,21.15c1.19,0,2.3.06,3.4,0a1.19,1.19,0,0,1,1.34.85A10.81,10.81,0,0,1,109,32.11c-.45.87-.46.86-1.44.86H104.2a7.46,7.46,0,0,0,.22-11.82Z"/><path id="Trazado_7440" data-name="Trazado 7440" class="cls-1" d="M88.46,8a7.51,7.51,0,0,0,.2,11.8l-.28,0H84.73a.49.49,0,0,1-.49-.28,11.19,11.19,0,0,1-1.65-5.34,10.57,10.57,0,0,1,1.52-6A.45.45,0,0,1,84.43,8Z"/><path id="Trazado_7441" data-name="Trazado 7441" class="cls-1" d="M132.42,0A6.56,6.56,0,0,1,139,6.57v.07a6.56,6.56,0,0,1-6.6,6.51h0a6.56,6.56,0,0,1-6.51-6.61v0A6.56,6.56,0,0,1,132.42,0Zm0,.8a5.77,5.77,0,0,0-5.76,5.75v0a5.75,5.75,0,0,0,5.73,5.75h0a5.75,5.75,0,0,0,5.78-5.71v0A5.75,5.75,0,0,0,132.41.81h0Z"/><path id="Trazado_7442" data-name="Trazado 7442" class="cls-1" d="M27.39,11c0-1,0-1.94,0-2.88,0-.09.17-.22.28-.27,2.09-1,4.17-2,6.26-3l3.1-1.5V6.57Z"/><path id="Trazado_7443" data-name="Trazado 7443" class="cls-1" d="M112.36,11c0-.94,0-1.87,0-2.8,0-.1.17-.22.28-.28l6-2.92,3.25-1.57a1.46,1.46,0,0,1,0,.2c0,.92,0,1.83,0,2.74a.45.45,0,0,1-.21.33l-9.26,4.26Z"/><path id="Trazado_7444" data-name="Trazado 7444" class="cls-1" d="M112.36,15.59c0-1,0-1.9,0-2.84a.26.26,0,0,1,.15-.18L121.88,8h.05a.89.89,0,0,1,0,.22c0,.89,0,1.78,0,2.67a.48.48,0,0,1-.22.35q-4.62,2.15-9.25,4.26Z"/><path id="Trazado_7445" data-name="Trazado 7445" class="cls-1" d="M27.39,15.61c0-1,0-1.89,0-2.81,0-.1.16-.23.27-.28l8-3.9L37.08,8c0,1,0,2,0,2.9,0,.1-.17.22-.29.27L29,14.84Z"/><path id="Trazado_7446" data-name="Trazado 7446" class="cls-1" d="M129.35,2.49l.21,0c1.31,0,2.62,0,3.93,0a2.07,2.07,0,0,1,1.67.72,2.12,2.12,0,0,1-.26,3,2.09,2.09,0,0,1-1,.45l-.53.12A4.32,4.32,0,0,1,135,8.39l1.25,1.95c-.44,0-.8,0-1.17,0-.1,0-.2-.13-.26-.23-.52-.77-1-1.56-1.55-2.33a1.8,1.8,0,0,0-1.8-.93,10.64,10.64,0,0,1-1.13,0v3.48h-1Zm1,.87c0,.8,0,1.61,0,2.41,0,.07.13.18.2.18.94,0,1.88,0,2.8-.06a1.25,1.25,0,0,0,1.22-1.27,1.19,1.19,0,0,0-1.13-1.25h0C132.4,3.31,131.4,3.36,130.35,3.36Z"/></g></g></g></g></svg>